<?xml version="1.0" encoding="UTF-8" standalone="no"?>
<svg
   width="24"
   height="24"
   viewBox="0 0 24 24"
   fill="none"
   version="1.1"
   id="svg3"
   sodipodi:docname="notit.svg"
   inkscape:version="1.4 (86a8ad7, 2024-10-11)"
   xmlns:inkscape="http://www.inkscape.org/namespaces/inkscape"
   xmlns:sodipodi="http://sodipodi.sourceforge.net/DTD/sodipodi-0.dtd"
   xmlns="http://www.w3.org/2000/svg"
   xmlns:svg="http://www.w3.org/2000/svg">
  <sodipodi:namedview
     id="namedview3"
     pagecolor="#ffffff"
     bordercolor="#000000"
     borderopacity="0.25"
     inkscape:showpageshadow="2"
     inkscape:pageopacity="0.0"
     inkscape:pagecheckerboard="0"
     inkscape:deskcolor="#d1d1d1"
     inkscape:zoom="7.2053572"
     inkscape:cx="-26.577447"
     inkscape:cy="4.9268897"
     inkscape:window-width="1920"
     inkscape:window-height="1009"
     inkscape:window-x="1912"
     inkscape:window-y="-8"
     inkscape:window-maximized="1"
     inkscape:current-layer="svg3" />
  <g
     clip-path="url(#clip0_350_2450)"
     id="g1"
     inkscape:label="g1"
     style="display:inline"
     transform="translate(-27.968833,-2.0117933)">
    <circle
       cx="40"
       cy="14"
       r="10"
       fill="#141718"
       id="circle1" />
    <path
       d="m 36.9281,18 v -1.3295 l 3.1065,-2.8765 c 0.2642,-0.2556 0.4858,-0.4858 0.6648,-0.6903 0.1818,-0.2046 0.3196,-0.4048 0.4133,-0.6009 0.0938,-0.1988 0.1407,-0.4133 0.1407,-0.6434 0,-0.2557 -0.0583,-0.4759 -0.1747,-0.6605 -0.1165,-0.1875 -0.2756,-0.331 -0.4773,-0.4304 -0.2017,-0.1023 -0.4304,-0.1534 -0.6861,-0.1534 -0.267,0 -0.5,0.0539 -0.6989,0.1619 -0.1988,0.1079 -0.3522,0.2628 -0.4602,0.4645 -0.1079,0.2017 -0.1619,0.4417 -0.1619,0.7201 h -1.7514 c 0,-0.571 0.1292,-1.0667 0.3877,-1.4872 0.2586,-0.4204 0.6208,-0.74571 1.0867,-0.97582 0.4659,-0.23011 1.0028,-0.34517 1.6108,-0.34517 0.625,0 1.169,0.11079 1.6321,0.33239 0.4659,0.21875 0.8281,0.5227 1.0866,0.9119 0.2586,0.3892 0.3878,0.8353 0.3878,1.3381 0,0.3295 -0.0653,0.6548 -0.196,0.9758 -0.1278,0.3211 -0.3565,0.6776 -0.6861,1.0696 -0.3295,0.3893 -0.794,0.8566 -1.3934,1.402 l -1.2742,1.2486 v 0.0597 h 3.6648 V 18 Z"
       fill="#ffffff"
       id="path1" />
  </g>
  <path
     d="m 9.0186374,5.8410024 v 1 c 0,1.6569 1.3430996,3.0000001 2.9999996,3.0000001 1.6569,0 3,-1.3431001 3,-3.0000001 v -1"
     stroke="#141718"
     stroke-width="1.5"
     stroke-linecap="round"
     stroke-linejoin="round"
     id="path2"
     style="display:none" />
  <path
     d="M 15.630137,2.8410024 H 8.4071474 c -1.95535,0 -3.62411,1.41365 -3.94557,3.3424 l -1.66667,9.9999996 c -0.40635,2.4381 1.47382,4.6576 3.94558,4.6576 H 17.296837 c 2.4717,0 4.3519,-2.2195 3.9455,-4.6576 l -1.6666,-9.9999996 c -0.3215,-1.92875 -1.9902,-3.3424 -3.9456,-3.3424 z"
     stroke="#141718"
     stroke-width="1.5"
     stroke-linejoin="round"
     id="path3"
     style="display:none" />
  <defs
     id="defs3">
    <clipPath
       id="clip0_350_2450">
      <rect
         width="20"
         height="20"
         fill="#ffffff"
         transform="translate(30,4)"
         id="rect3"
         x="0"
         y="0" />
    </clipPath>
  </defs>
</svg>
